<?xml version="1.0" encoding="UTF-8" standalone="no"?>
<!-- Created with Inkscape (http://www.inkscape.org/) -->

<svg xmlns:dc="http://purl.org/dc/elements/1.1/" xmlns:cc="http://creativecommons.org/ns#" xmlns:rdf="http://www.w3.org/1999/02/22-rdf-syntax-ns#" xmlns:svg="http://www.w3.org/2000/svg" xmlns="http://www.w3.org/2000/svg" xmlns:xlink="http://www.w3.org/1999/xlink" version="1.2" width="1200" height="600" id="svg2">
    <defs id="defs4">
        <linearGradient id="linearGradient3997">
            <stop id="stop3999" style="stop-color:#000000;stop-opacity:1" offset="0" />
            <stop id="stop4007" style="stop-color:#000000;stop-opacity:1" offset="0" />
            <stop id="stop4005" style="stop-color:#ffffff;stop-opacity:1" offset="0.46099189" />
            <stop id="stop4009" style="stop-color:#000000;stop-opacity:1" offset="0.99999994" />
            <stop id="stop4001" style="stop-color:#000000;stop-opacity:1" offset="1" />
        </linearGradient>
        <linearGradient id="linearGradient3833">
            <stop id="stop3835" style="stop-color:#004abd;stop-opacity:1" offset="0" />
            <stop id="stop3837" style="stop-color:#ff018e;stop-opacity:1" offset="1" />
        </linearGradient>
        <linearGradient x1="258.57681" y1="319.77979" x2="365.49951" y2="394.84912" id="linearGradient3851" xlink:href="#linearGradient3833" gradientUnits="userSpaceOnUse" spreadMethod="reflect" />
        <filter x="-0.12949425" y="-0.25950858" width="1.2589885" height="1.5190171" color-interpolation-filters="sRGB" id="filter3967">
            <feGaussianBlur id="feGaussianBlur3969" stdDeviation="54.394722" />
        </filter>
        <clipPath id="clipPath3971">
            <path d="m 1145.513,454.18069 a 504.06613,251.52798 0 1 1 -1008.13229,0 504.06613,251.52798 0 1 1 1008.13229,0 z" transform="matrix(0.42068169,0,0,0.35502201,93.74989,241.90394)" id="path3973" style="fill:#ffffff;fill-opacity:1;stroke:none;filter:url(#filter3967)" />
        </clipPath>
        <linearGradient x1="250.8204" y1="774.34509" x2="285.75717" y2="760.20288" id="linearGradient4003" xlink:href="#linearGradient3997" gradientUnits="userSpaceOnUse" spreadMethod="reflect" />
        <linearGradient x1="258.57681" y1="319.77979" x2="365.49951" y2="394.84912" id="linearGradient4011" xlink:href="#linearGradient3833" gradientUnits="userSpaceOnUse" spreadMethod="reflect" />
        <linearGradient x1="250.8204" y1="774.34509" x2="285.75717" y2="760.20288" id="linearGradient4013" xlink:href="#linearGradient3997" gradientUnits="userSpaceOnUse" spreadMethod="reflect" />
        <linearGradient x1="258.57681" y1="319.77979" x2="365.49951" y2="394.84912" id="linearGradient4015" xlink:href="#linearGradient3833" gradientUnits="userSpaceOnUse" spreadMethod="reflect" />
        <linearGradient x1="250.8204" y1="774.34509" x2="285.75717" y2="760.20288" id="linearGradient4017" xlink:href="#linearGradient3997" gradientUnits="userSpaceOnUse" spreadMethod="reflect" />
        <linearGradient x1="258.57681" y1="319.77979" x2="365.49951" y2="394.84912" id="linearGradient4019" xlink:href="#linearGradient3833" gradientUnits="userSpaceOnUse" spreadMethod="reflect" />
        <linearGradient x1="250.8204" y1="774.34509" x2="285.75717" y2="760.20288" id="linearGradient4021" xlink:href="#linearGradient3997" gradientUnits="userSpaceOnUse" spreadMethod="reflect" />
        <linearGradient x1="258.57681" y1="319.77979" x2="365.49951" y2="394.84912" id="linearGradient4023" xlink:href="#linearGradient3833" gradientUnits="userSpaceOnUse" spreadMethod="reflect" />
        <linearGradient x1="250.8204" y1="774.34509" x2="285.75717" y2="760.20288" id="linearGradient4025" xlink:href="#linearGradient3997" gradientUnits="userSpaceOnUse" spreadMethod="reflect" />
        <linearGradient x1="250.8204" y1="774.34509" x2="285.75717" y2="760.20288" id="linearGradient4027" xlink:href="#linearGradient3997" gradientUnits="userSpaceOnUse" spreadMethod="reflect" />
        <linearGradient x1="250.8204" y1="774.34509" x2="285.75717" y2="760.20288" id="linearGradient4029" xlink:href="#linearGradient3997" gradientUnits="userSpaceOnUse" spreadMethod="reflect" />
        <linearGradient x1="250.8204" y1="774.34509" x2="285.75717" y2="760.20288" id="linearGradient4031" xlink:href="#linearGradient3997" gradientUnits="userSpaceOnUse" spreadMethod="reflect" />
        <linearGradient x1="250.8204" y1="774.34509" x2="285.75717" y2="760.20288" id="linearGradient4033" xlink:href="#linearGradient3997" gradientUnits="userSpaceOnUse" spreadMethod="reflect" />
    </defs>
    <metadata id="metadata7">
        <rdf:RDF>
            <cc:Work rdf:about="">
                <dc:format>image/svg+xml</dc:format>
                <dc:type rdf:resource="http://purl.org/dc/dcmitype/StillImage" />
                <dc:title></dc:title>
            </cc:Work>
        </rdf:RDF>
    </metadata>
    <g transform="translate(0,-452.36218)" id="layer1">
        <g transform="matrix(1.3357198,0,0,1.5417929,-108.95745,-286.04199)" id="g3979" style="stroke:url(#linearGradient4003);stroke-width:8;stroke-linejoin:bevel;stroke-miterlimit:4;stroke-opacity:1;stroke-dasharray:none">
            <g transform="matrix(3.3488921,0,0,3.2013401,-331.73612,-388.76468)" id="flowRoot3050" style="font-size:40px;font-style:normal;font-weight:normal;line-height:125%;letter-spacing:0px;word-spacing:0px;fill:url(#linearGradient4023);fill-opacity:1;stroke:url(#linearGradient4025);stroke-width:2.44328141;stroke-linejoin:bevel;stroke-miterlimit:4;stroke-opacity:1;stroke-dasharray:none;font-family:Sans">
                <path d="m 200.23437,309.30078 -27.49218,0 1.6875,-8.4375 c 0.79681,-3.9374 0.93744,-6.44521 0.42187,-7.52343 -0.46881,-1.07803 -1.52349,-1.61709 -3.16406,-1.61719 -1.7813,10e-5 -3.2813,0.72666 -4.5,2.17969 -1.2188,1.45322 -2.10942,3.65634 -2.67188,6.60937 -0.75004,3.79696 -0.82036,6.65633 -0.21093,8.57813 0.60932,1.92195 2.95307,4.24226 7.03125,6.96093 11.57806,7.82819 18.58586,14.25006 21.02343,19.26563 2.39055,5.01567 2.4843,13.1016 0.28125,24.25781 -1.6407,8.1094 -3.79694,14.08595 -6.46875,17.92969 -2.67194,3.84376 -6.98443,7.07813 -12.9375,9.70312 -5.95317,2.57813 -12.5391,3.86719 -19.75781,3.86719 -7.9219,0 -14.39065,-1.5 -19.40625,-4.5 -4.96876,-2.99999 -7.87501,-6.8203 -8.71875,-11.46094 -0.79688,-4.6406 -0.32813,-11.22653 1.40625,-19.75781 l 1.47656,-7.45312 27.49219,0 -2.74219,13.85156 c -0.89066,4.26565 -1.07816,7.00783 -0.5625,8.22656 0.56247,1.21877 1.82809,1.82814 3.79688,1.82813 1.96871,10e-6 3.58589,-0.77342 4.85156,-2.32032 1.26558,-1.54685 2.20308,-3.84372 2.8125,-6.89062 1.35933,-6.70309 1.33589,-11.0859 -0.0703,-13.14844 -1.50005,-2.06246 -5.43754,-5.50777 -11.8125,-10.33594 -6.37503,-4.87494 -10.5469,-8.414 -12.51563,-10.61718 -1.92189,-2.20307 -3.28127,-5.24994 -4.07812,-9.14063 -0.79689,-3.89055 -0.58596,-8.85929 0.63281,-14.90625 1.73436,-8.71866 4.10154,-15.09365 7.10156,-19.125 3.04685,-4.03114 7.28903,-7.17176 12.72657,-9.42187 5.43745,-2.29676 11.67182,-3.4452 18.70312,-3.44532 7.68744,1.2e-4 13.96868,1.24231 18.84375,3.72657 4.92179,2.48448 7.87492,5.6251 8.85938,9.42187 1.03116,3.7501 0.65616,10.14853 -1.125,19.19531 l -0.91407,4.5" id="path3059" style="font-size:144px;font-style:italic;font-variant:normal;font-weight:bold;font-stretch:normal;fill:url(#linearGradient4011);fill-opacity:1;stroke:url(#linearGradient4013);stroke-width:2.44328141;stroke-linejoin:bevel;stroke-miterlimit:4;stroke-opacity:1;stroke-dasharray:none;font-family:Impact;-inkscape-font-specification:Impact Bold Italic" />
                <path d="m 218.9375,274.84766 49.35937,0 -4.57031,22.78125 -19.75781,0 -4.28906,21.58594 18.49218,0 -4.35937,21.65625 -18.49219,0 -4.99219,25.03125 21.72657,0 -4.57032,22.78125 -51.32812,0 22.78125,-113.83594" id="path3061" style="font-size:144px;font-style:italic;font-variant:normal;font-weight:bold;font-stretch:normal;fill:url(#linearGradient4015);fill-opacity:1;stroke:url(#linearGradient4017);stroke-width:2.44328141;stroke-linejoin:bevel;stroke-miterlimit:4;stroke-opacity:1;stroke-dasharray:none;font-family:Impact;-inkscape-font-specification:Impact Bold Italic" />
                <path d="m 390.21875,274.84766 -35.92969,113.83594 -36.98437,0 c 0.14056,-17.48436 1.14837,-37.35934 3.02343,-59.625 -3.09381,9.51567 -9.82037,29.39065 -20.17968,59.625 l -36.77344,0 9.5625,-113.83594 28.75781,0 -4.92187,39.72656 -4.57032,38.32031 c 5.01558,-19.82807 12.93745,-45.84366 23.76563,-78.04687 l 30.79687,0 c -0.23447,3.32823 -1.66415,15.84385 -4.28906,37.54687 l -5.41406,43.24219 c 7.12491,-27.51556 15.25771,-54.44522 24.39844,-80.78906 l 28.75781,0" id="path3063" style="font-size:144px;font-style:italic;font-variant:normal;font-weight:bold;font-stretch:normal;fill:url(#linearGradient4019);fill-opacity:1;stroke:url(#linearGradient4021);stroke-width:2.44328141;stroke-linejoin:bevel;stroke-miterlimit:4;stroke-opacity:1;stroke-dasharray:none;font-family:Impact;-inkscape-font-specification:Impact Bold Italic" />
            </g>
            <g transform="matrix(3.3488921,0,0,3.2013401,-331.73612,-388.76468)" clip-path="url(#clipPath3971)" id="g3859" style="font-size:40px;font-style:normal;font-weight:normal;line-height:125%;letter-spacing:0px;word-spacing:0px;opacity:0.04500002;fill:#ffffff;fill-opacity:1;stroke:url(#linearGradient4033);stroke-width:2.44328141;stroke-linejoin:bevel;stroke-miterlimit:4;stroke-opacity:1;stroke-dasharray:none;font-family:Sans">
                <path d="m 200.23437,309.30078 -27.49218,0 1.6875,-8.4375 c 0.79681,-3.9374 0.93744,-6.44521 0.42187,-7.52343 -0.46881,-1.07803 -1.52349,-1.61709 -3.16406,-1.61719 -1.7813,10e-5 -3.2813,0.72666 -4.5,2.17969 -1.2188,1.45322 -2.10942,3.65634 -2.67188,6.60937 -0.75004,3.79696 -0.82036,6.65633 -0.21093,8.57813 0.60932,1.92195 2.95307,4.24226 7.03125,6.96093 11.57806,7.82819 18.58586,14.25006 21.02343,19.26563 2.39055,5.01567 2.4843,13.1016 0.28125,24.25781 -1.6407,8.1094 -3.79694,14.08595 -6.46875,17.92969 -2.67194,3.84376 -6.98443,7.07813 -12.9375,9.70312 -5.95317,2.57813 -12.5391,3.86719 -19.75781,3.86719 -7.9219,0 -14.39065,-1.5 -19.40625,-4.5 -4.96876,-2.99999 -7.87501,-6.8203 -8.71875,-11.46094 -0.79688,-4.6406 -0.32813,-11.22653 1.40625,-19.75781 l 1.47656,-7.45312 27.49219,0 -2.74219,13.85156 c -0.89066,4.26565 -1.07816,7.00783 -0.5625,8.22656 0.56247,1.21877 1.82809,1.82814 3.79688,1.82813 1.96871,10e-6 3.58589,-0.77342 4.85156,-2.32032 1.26558,-1.54685 2.20308,-3.84372 2.8125,-6.89062 1.35933,-6.70309 1.33589,-11.0859 -0.0703,-13.14844 -1.50005,-2.06246 -5.43754,-5.50777 -11.8125,-10.33594 -6.37503,-4.87494 -10.5469,-8.414 -12.51563,-10.61718 -1.92189,-2.20307 -3.28127,-5.24994 -4.07812,-9.14063 -0.79689,-3.89055 -0.58596,-8.85929 0.63281,-14.90625 1.73436,-8.71866 4.10154,-15.09365 7.10156,-19.125 3.04685,-4.03114 7.28903,-7.17176 12.72657,-9.42187 5.43745,-2.29676 11.67182,-3.4452 18.70312,-3.44532 7.68744,1.2e-4 13.96868,1.24231 18.84375,3.72657 4.92179,2.48448 7.87492,5.6251 8.85938,9.42187 1.03116,3.7501 0.65616,10.14853 -1.125,19.19531 l -0.91407,4.5" id="path3861" style="font-size:144px;font-style:italic;font-variant:normal;font-weight:bold;font-stretch:normal;fill:#ffffff;fill-opacity:1;stroke:url(#linearGradient4027);stroke-width:2.44328141;stroke-linejoin:bevel;stroke-miterlimit:4;stroke-opacity:1;stroke-dasharray:none;font-family:Impact;-inkscape-font-specification:Impact Bold Italic" />
                <path d="m 218.9375,274.84766 49.35937,0 -4.57031,22.78125 -19.75781,0 -4.28906,21.58594 18.49218,0 -4.35937,21.65625 -18.49219,0 -4.99219,25.03125 21.72657,0 -4.57032,22.78125 -51.32812,0 22.78125,-113.83594" id="path3863" style="font-size:144px;font-style:italic;font-variant:normal;font-weight:bold;font-stretch:normal;fill:#ffffff;fill-opacity:1;stroke:url(#linearGradient4029);stroke-width:2.44328141;stroke-linejoin:bevel;stroke-miterlimit:4;stroke-opacity:1;stroke-dasharray:none;font-family:Impact;-inkscape-font-specification:Impact Bold Italic" />
                <path d="m 390.21875,274.84766 -35.92969,113.83594 -36.98437,0 c 0.14056,-17.48436 1.14837,-37.35934 3.02343,-59.625 -3.09381,9.51567 -9.82037,29.39065 -20.17968,59.625 l -36.77344,0 9.5625,-113.83594 28.75781,0 -4.92187,39.72656 -4.57032,38.32031 c 5.01558,-19.82807 12.93745,-45.84366 23.76563,-78.04687 l 30.79687,0 c -0.23447,3.32823 -1.66415,15.84385 -4.28906,37.54687 l -5.41406,43.24219 c 7.12491,-27.51556 15.25771,-54.44522 24.39844,-80.78906 l 28.75781,0" id="path3865" style="font-size:144px;font-style:italic;font-variant:normal;font-weight:bold;font-stretch:normal;fill:#ffffff;fill-opacity:1;stroke:url(#linearGradient4031);stroke-width:2.44328141;stroke-linejoin:bevel;stroke-miterlimit:4;stroke-opacity:1;stroke-dasharray:none;font-family:Impact;-inkscape-font-specification:Impact Bold Italic" />
            </g>
        </g>
    </g>
</svg>
